<svg width="19" height="20" viewBox="0 0 19 20" fill="none" xmlns="http://www.w3.org/2000/svg">
<path d="M8.25 18.25C8.25 18.5484 8.13147 18.8345 7.9205 19.0455C7.70952 19.2565 7.42337 19.375 7.125 19.375H1.125C0.826631 19.375 0.540483 19.2565 0.329505 19.0455C0.118526 18.8345 0 18.5484 0 18.25V1.75C0 1.45163 0.118526 1.16548 0.329505 0.954505C0.540483 0.743526 0.826631 0.625 1.125 0.625H7.125C7.42337 0.625 7.70952 0.743526 7.9205 0.954505C8.13147 1.16548 8.25 1.45163 8.25 1.75C8.25 2.04837 8.13147 2.33452 7.9205 2.5455C7.70952 2.75647 7.42337 2.875 7.125 2.875H2.25V17.125H7.125C7.42337 17.125 7.70952 17.2435 7.9205 17.4545C8.13147 17.6655 8.25 17.9516 8.25 18.25ZM18.4209 9.20406L14.6709 5.45406C14.4596 5.24272 14.1729 5.12399 13.8741 5.12399C13.5752 5.12399 13.2885 5.24272 13.0772 5.45406C12.8658 5.66541 12.7471 5.95205 12.7471 6.25094C12.7471 6.54982 12.8658 6.83647 13.0772 7.04781L14.9062 8.875H7.125C6.82663 8.875 6.54048 8.99353 6.3295 9.2045C6.11853 9.41548 6 9.70163 6 10C6 10.2984 6.11853 10.5845 6.3295 10.7955C6.54048 11.0065 6.82663 11.125 7.125 11.125H14.9062L13.0763 12.9541C12.8649 13.1654 12.7462 13.4521 12.7462 13.7509C12.7462 14.0498 12.8649 14.3365 13.0763 14.5478C13.2876 14.7592 13.5742 14.8779 13.8731 14.8779C14.172 14.8779 14.4587 14.7592 14.67 14.5478L18.42 10.7978C18.5249 10.6934 18.6082 10.5692 18.6651 10.4325C18.722 10.2958 18.7513 10.1492 18.7514 10.0011C18.7514 9.85307 18.7223 9.70644 18.6656 9.56966C18.6089 9.43288 18.5258 9.30864 18.4209 9.20406Z" fill="#FF0000"/>
</svg>
